<svg width="23" height="40" viewBox="0 0 23 40" fill="none" xmlns="http://www.w3.org/2000/svg">
<path d="M15.6738 17.5781H13.4766V8.78906H15.6738C16.9044 8.78906 17.8711 9.75571 17.8711 10.9863C17.8711 13.8866 22.2656 13.8866 22.2656 10.9863C22.2656 7.33872 19.3216 4.39453 15.6738 4.39453H13.4766V2.19727C13.4766 0.746924 12.3779 0 11.2793 0C10.1807 0 9.08203 0.746924 9.08203 2.19727V4.39453H6.5918C2.94404 4.39453 0 7.33872 0 10.9863V15.3809C0 19.0285 2.94404 21.9727 6.5918 21.9727H9.08203V31.0547H6.5918C5.36118 31.0547 4.39453 30.088 4.39453 28.8574C4.39453 25.9572 0 25.9572 0 28.8574C0 32.505 2.94404 35.4492 6.5918 35.4492H9.08203V37.6465C9.08203 39.0968 10.1807 39.8438 11.2793 39.8438C12.3779 39.8438 13.4766 39.0968 13.4766 37.6465V35.4492H15.6738C19.3216 35.4492 22.2656 32.505 22.2656 28.8574V24.1699C22.2656 20.5223 19.3216 17.5781 15.6738 17.5781ZM9.08203 17.5781H6.5918C5.36118 17.5781 4.39453 16.6115 4.39453 15.3809V10.9863C4.39453 9.75571 5.36118 8.78906 6.5918 8.78906H9.08203V17.5781ZM17.8711 28.8574C17.8711 30.088 16.9044 31.0547 15.6738 31.0547H13.4766V21.9727H15.6738C16.9044 21.9727 17.8711 22.9393 17.8711 24.1699V28.8574Z" fill="#2F7152"/>
</svg>
